<?xml version="1.0" encoding="UTF-8"?>
<svg id="Livello_1" data-name="Livello 1" xmlns="http://www.w3.org/2000/svg" xmlns:xlink="http://www.w3.org/1999/xlink" version="1.1" viewBox="0 0 450 150">
  <defs>
    <style>
      .cls-1 {
        fill: #191414;
      }

      .cls-1, .cls-2, .cls-3, .cls-4 {
        stroke-width: 0px;
      }

      .cls-2 {
        fill: url(#Sfumatura_senza_nome_4);
      }

      .cls-3 {
        fill: url(#Sfumatura_senza_nome_5);
      }

      .cls-4 {
        fill: url(#Sfumatura_senza_nome_7);
      }
    </style>
    <linearGradient id="Sfumatura_senza_nome_5" data-name="Sfumatura senza nome 5" x1="278.83" y1="31.86" x2="179.52" y2="118.14" gradientUnits="userSpaceOnUse">
      <stop offset=".15" stop-color="#63dca7"/>
      <stop offset=".24" stop-color="#5cd3ab"/>
      <stop offset=".4" stop-color="#49bab7"/>
      <stop offset=".59" stop-color="#2a93cb"/>
      <stop offset=".81" stop-color="#025ee6"/>
    </linearGradient>
    <linearGradient id="Sfumatura_senza_nome_4" data-name="Sfumatura senza nome 4" x1="219.14" y1="19.89" x2="201.21" y2="35.47" gradientUnits="userSpaceOnUse">
      <stop offset=".2" stop-color="#63dca7"/>
      <stop offset=".31" stop-color="#5cd3ab"/>
      <stop offset=".5" stop-color="#49bab7"/>
      <stop offset=".73" stop-color="#2a93cb"/>
      <stop offset="1" stop-color="#025ee6"/>
    </linearGradient>
    <linearGradient id="Sfumatura_senza_nome_7" data-name="Sfumatura senza nome 7" x1="253.61" y1="117.6" x2="235.67" y2="133.18" gradientUnits="userSpaceOnUse">
      <stop offset=".06" stop-color="#63dca7"/>
      <stop offset=".07" stop-color="#5cd3ab"/>
      <stop offset=".07" stop-color="#49bab7"/>
      <stop offset=".08" stop-color="#2a93cb"/>
      <stop offset=".09" stop-color="#025ee6"/>
    </linearGradient>
  </defs>
  <g>
    <path class="cls-3" d="M277.81,83.66V30.69h-52.98v35.65h-44.28v52.98h52.98v-35.65h44.28ZM233.53,66.34v-26.95h35.59v35.59h-35.59v-8.63ZM224.83,83.66v26.95h-35.59v-35.59h35.59v8.63Z"/>
    <rect class="cls-2" x="207.99" y="13.85" width="16.84" height="16.84"/>
    <rect class="cls-4" x="233.53" y="119.31" width="16.84" height="16.84"/>
  </g>
  <path class="cls-1" d="M50.05,39.26h-30.56v22.38h29.28v8.68h-29.28v29.28h-9.17V30.59h39.73v8.68Z"/>
  <path class="cls-1" d="M101.91,93.39c-5.06,5-11.21,7.49-18.44,7.49s-13.36-2.5-18.39-7.49c-5.03-4.99-7.54-11.14-7.54-18.44s2.51-13.44,7.54-18.44c5.03-4.99,11.16-7.49,18.39-7.49s13.37,2.5,18.44,7.49c5.06,5,7.59,11.14,7.59,18.44s-2.53,13.44-7.59,18.44ZM83.47,92.5c4.93,0,9.07-1.68,12.42-5.03,3.35-3.35,5.03-7.53,5.03-12.52s-1.68-9.17-5.03-12.52c-3.35-3.35-7.49-5.03-12.42-5.03s-8.97,1.68-12.32,5.03c-3.35,3.35-5.03,7.53-5.03,12.52s1.68,9.17,5.03,12.52c3.35,3.35,7.46,5.03,12.32,5.03Z"/>
  <path class="cls-1" d="M142.82,100.88c-7.43,0-13.6-2.48-18.53-7.44-4.93-4.96-7.39-11.12-7.39-18.48s2.46-13.52,7.39-18.48c4.93-4.96,11.11-7.44,18.53-7.44,4.86,0,9.23,1.17,13.11,3.5,3.88,2.33,6.77,5.47,8.68,9.42l-7.2,4.14c-1.25-2.63-3.17-4.73-5.77-6.31-2.6-1.58-5.54-2.37-8.82-2.37-4.93,0-9.05,1.68-12.37,5.03-3.32,3.35-4.98,7.53-4.98,12.52s1.66,9.07,4.98,12.42c3.32,3.35,7.44,5.03,12.37,5.03,3.29,0,6.24-.77,8.87-2.32,2.63-1.54,4.63-3.63,6.01-6.26l7.3,4.24c-2.1,3.88-5.13,6.98-9.07,9.32-3.94,2.33-8.32,3.5-13.11,3.5Z"/>
  <g>
    <path class="cls-1" d="M303.83,63.44c0,1.86.97,3.36,2.9,4.48,1.93,1.12,4.24,2.08,6.92,2.87,2.68.79,5.37,1.58,8.08,2.37,2.71.8,5,2.29,6.88,4.47,1.88,2.19,2.82,5,2.82,8.43,0,4.47-1.73,8.05-5.18,10.75-3.45,2.7-7.87,4.04-13.26,4.04-4.8,0-8.91-1.05-12.32-3.15-3.42-2.1-5.85-4.9-7.3-8.38l7.39-4.24c.79,2.37,2.27,4.24,4.44,5.62,2.17,1.38,4.76,2.07,7.79,2.07,2.83,0,5.16-.54,7-1.62,1.84-1.08,2.76-2.77,2.76-5.07,0-1.9-.95-3.43-2.86-4.58-1.91-1.15-4.2-2.12-6.88-2.93-2.68-.8-5.37-1.61-8.08-2.43-2.71-.81-5.02-2.27-6.92-4.37-1.91-2.1-2.86-4.8-2.86-8.08,0-4.27,1.66-7.79,4.98-10.55,3.32-2.76,7.48-4.14,12.47-4.14,4.01,0,7.57.9,10.7,2.71,3.12,1.81,5.47,4.32,7.05,7.54l-7.2,4.04c-1.77-4.2-5.29-6.31-10.55-6.31-2.43,0-4.5.56-6.21,1.69-1.71,1.12-2.56,2.72-2.56,4.77Z"/>
    <path class="cls-1" d="M412.57,99.57l-5.41-15.93h-31.03l-5.85,15.93h-9.76l25.73-69.01h10.35l25.73,69.01h-9.76ZM379.24,75.06h24.79l-12.61-33.61-12.18,33.61Z"/>
    <path class="cls-1" d="M430.51,30.56h9.17v69.01h-9.17V30.56Z"/>
  </g>
</svg>
